# xmcd
#
# Track frame offsets:
#	225
#	14790
#	34832
#	46614
#	60561
#	76395
#	89985
#	105224
#	121228
#	136582
#	150427
#	163277
#	178424
#	192573
#	203516
#	219386
#	236913
#
# Disc length: 3468 seconds
#
# Revision: 1
# Processed by: cddbd v1.5.2PL0 Copyright (c) Steve Scherf et al.
# Submitted via: EasyCDDAExtractor 5.0.6
#
DISCID=e90d8911
DTITLE=Various Artist - The SA Country Collection
DYEAR=1996
DGENRE=Country
TTITLE0=Tommy Dell - Little Rosa
TTITLE1=Jody Wayne - Deck Of Cards
TTITLE2=Barbara Ray - I Doin't Wanna Play House
TTITLE3=Cora Marie - Gee Vir My 'n Bietjie Country
TTITLE4=Joanna Field - Don't Fly Too High
TTITLE5=Barbara Ray - Who's Gonna Tie My Shoes
TTITLE6=Bobby Angel - Kelly's Song
TTITLE7=Tommy Dell - Please Mr Barman
TTITLE8=Jody Wayne - Tell Laura I Love Her
TTITLE9=Cora Marie - Sing Vir My n' Country
TTITLE10=Bobby Angel - Some Broken Hearts Never Mend
TTITLE11=Barbara Ray - Silver Threads And Golden Needles
TTITLE12=Bobby Angel - You Ask Me To
TTITLE13=Cora Marie - Ek's 'n Country Meisie
TTITLE14=Tommy and Shaun Dell - Love Is All Around
TTITLE15=Bobby Angel - Lucille
TTITLE16=Tommy Dell - Teddy Bear
EXTD=
EXTT0=
EXTT1=
EXTT2=
EXTT3=
EXTT4=
EXTT5=
EXTT6=
EXTT7=
EXTT8=
EXTT9=
EXTT10=
EXTT11=
EXTT12=
EXTT13=
EXTT14=
EXTT15=
EXTT16=
PLAYORDER=
